<svg xmlns="http://www.w3.org/2000/svg" xmlns:xlink="http://www.w3.org/1999/xlink" width="1920" height="1080" viewBox="0 0 1920 1080">
  <defs>
    <clipPath id="clip-Web_1920_2">
      <rect width="1920" height="1080"/>
    </clipPath>
  </defs>
  <g id="Web_1920_2" data-name="Web 1920 – 2" clip-path="url(#clip-Web_1920_2)">
    <rect width="1920" height="1080" fill="#7f1d15"/>
    <g id="Composant_4_1" data-name="Composant 4 – 1" transform="translate(-10.998 585.854)">
      <path id="Tracé_87" data-name="Tracé 87" d="M968.013.591c533.969-1.473,966.387,134,965.835,302.6S1499.981,609.651,966.013,611.125-.375,477.12.178,308.526,434.045,2.065,968.013.591Z" transform="matrix(1, 0.017, -0.017, 1, 11.458, -3.12)" fill="#76110d"/>
    </g>
    <path id="Tracé_21" data-name="Tracé 21" d="M-92.926,151.438V73.246l35.418,19.659v41.762" transform="translate(704.224 411.301)" fill="none" stroke="#faecec" stroke-width="4" opacity="0.189"/>
    <path id="Union_3" data-name="Union 3" d="M.582,50.96,0,51.291l.582-.331v0L41.275,27.819.582,50.96v0ZM20.638,14.146,1.136,26.007Z" transform="translate(575.464 61.055)" fill="none" stroke="#faecec" stroke-width="4" opacity="0.189"/>
    <path id="Tracé_11" data-name="Tracé 11" d="M871.323,556.089" fill="none" stroke="#707070" stroke-width="1"/>
    <path id="Tracé_17" data-name="Tracé 17" d="M939.5,597.748l-68.409-41.93v41.93l68.409-41.93Z" transform="translate(416.251 -413)" fill="none" stroke="#faecec" stroke-width="4" opacity="0.189"/>
    <path id="Tracé_16" data-name="Tracé 16" d="M1009.638,262.971l32.1-18.26-32.1-18.083v69.906" transform="translate(726 79)" fill="none" stroke="#faecec" stroke-width="4" opacity="0.189"/>
    <path id="Tracé_22" data-name="Tracé 22" d="M470.976,559.9l-22.045,16.254L417.4,559.9v67.663l31.535-17.1,22.045,17.1" transform="translate(-194.662 -287.324)" fill="none" stroke="#faecec" stroke-width="4" opacity="0.189"/>
    <path id="Tracé_84" data-name="Tracé 84" d="M939.5,597.748l-68.409-41.93v41.93l68.409-41.93Z" transform="translate(880.251 179)" fill="none" stroke="#faecec" stroke-width="4" opacity="0.189"/>
    <path id="Tracé_85" data-name="Tracé 85" d="M1009.638,262.971l32.1-18.26-32.1-18.083v69.906" transform="translate(-914 494)" fill="none" stroke="#faecec" stroke-width="4" opacity="0.189"/>
    <path id="Tracé_86" data-name="Tracé 86" d="M-92.926,151.438V73.246l35.418,19.659v41.762" transform="translate(1300.224 388.301)" fill="none" stroke="#faecec" stroke-width="4" opacity="0.189"/>
  </g>
</svg>
