<svg id="jaune" xmlns="http://www.w3.org/2000/svg" width="204" height="288" viewBox="0 0 204 288">
  <g id="Rectangle_11" data-name="Rectangle 11" fill="#fff" stroke="#707070" stroke-width="2">
    <rect width="204" height="288" rx="8" stroke="none"/>
    <rect x="1" y="1" width="202" height="286" rx="7" fill="none"/>
  </g>
  <g id="Groupe_39" data-name="Groupe 39" transform="translate(13.656 54.298)">
    <g id="Groupe_12" data-name="Groupe 12" transform="translate(-0.405 0)">
      <g id="Groupe_9" data-name="Groupe 9">
        <g id="Groupe_6" data-name="Groupe 6">
          <g id="Ellipse_6" data-name="Ellipse 6" transform="translate(3.448)" fill="#f9bc56" stroke="#faecec" stroke-width="1">
            <ellipse cx="84.197" cy="85" rx="84.197" ry="85" stroke="none"/>
            <ellipse cx="84.197" cy="85" rx="83.697" ry="84.5" fill="none"/>
          </g>
          <g id="Tracé_90" data-name="Tracé 90" transform="translate(58.428 1.258) rotate(30)" fill="#f9bc56" opacity="0.948">
            <path d="M 100.0297317504883 115.3523712158203 L 34.65907287597656 115.0829544067383 L 1.73073422908783 58.14787292480469 L 34.18093109130859 1.503588914871216 L 99.55158996582031 1.772985696792603 L 132.4799194335938 58.70806884765625 L 100.0297317504883 115.3523712158203 Z" stroke="none"/>
            <path d="M 35.04827117919922 3.007171630859375 L 3.46148681640625 58.14429092407227 L 35.52639770507812 113.5865097045898 L 99.16239929199219 113.8487548828125 L 130.7491607666016 58.71163177490234 L 98.68422698974609 3.269416809082031 L 35.04827117919922 3.007171630859375 M 33.31360626220703 -7.62939453125e-06 L 100.4188995361328 0.2765274047851562 L 134.2106475830078 58.70450973510742 L 100.8970642089844 116.8559341430664 L 33.79172515869141 116.5793914794922 L 0 58.15140914916992 L 33.31360626220703 -7.62939453125e-06 Z" stroke="none" fill="#faecec"/>
          </g>
        </g>
      </g>
    </g>
  </g>
  <g id="Groupe_42" data-name="Groupe 42" transform="translate(-399 -331)">
    <path id="Tracé_92" data-name="Tracé 92" d="M1003.006,73.055v81.52" transform="translate(-503.289 358.299)" fill="none" stroke="#faecec" stroke-width="4"/>
    <path id="Tracé_93" data-name="Tracé 93" d="M1036.486,88.131l-32.794,18.649" transform="translate(-504.438 365.326)" fill="none" stroke="#faecec" stroke-width="4"/>
    <path id="Tracé_94" data-name="Tracé 94" d="M1019.8,80.721,1004.3,90.144" transform="translate(-505.148 361.872)" fill="none" stroke="#faecec" stroke-width="4"/>
  </g>
</svg>
