<svg xmlns="http://www.w3.org/2000/svg" width="503" height="614.5" viewBox="0 0 503 614.5">
  <g id="Composant_2_1" data-name="Composant 2 – 1" transform="translate(1.5 1.5)">
    <text id="Les_7_sceaux" data-name="Les 7 sceaux" transform="translate(0 494)" fill="#080808" font-size="87" font-family="Skia" font-weight="700"><tspan x="0" y="68">Les 7 sceaux</tspan></text>
    <g id="Groupe_26" data-name="Groupe 26" transform="translate(-846 -288)">
      <path id="Tracé_25" data-name="Tracé 25" d="M846,288h500V782H846Zm248.665,479.71c127.251.438,231.989-104.491,232.514-232.937.523-127.786-101.738-231.986-228.273-232.315-131.774-.342-234.582,107.356-234.027,234.969C865.43,663.885,966.617,767.325,1094.665,767.71Z" stroke="#933" stroke-width="3"/>
      <path id="Tracé_26" data-name="Tracé 26" d="M1094.665,767.71c-128.048-.385-229.235-103.825-229.786-230.283-.555-127.613,102.253-235.311,234.027-234.969,126.535.329,228.8,104.529,228.273,232.315C1326.654,663.219,1221.916,768.148,1094.665,767.71ZM929.68,535.131c-.929,90.164,72.374,165.626,161.176,167.3,93.981,1.776,171.492-74,171.45-168.478-.041-92.8-73.928-165.444-164.083-166.2C1006.078,366.978,930.642,441.827,929.68,535.131Zm102.266,212.454a207.971,207.971,0,0,0,61.017,9.123,4.146,4.146,0,0,0,2.968-1.425c4.369-6.194,8.577-12.5,12.859-18.81l-19-11.73,2.757-4.783,22.678,15.367-13.556,20.515.753,1.476c11.164-1.467,22.343-2.841,33.468-4.565.974-.151,2.365-2.672,2.256-3.983-1.161-13.929-2.646-27.83-3.9-41.752-.29-3.235-1.428-4.119-4.753-3.664-10.376,1.422-20.811,2.412-31.209,3.683-1.535.187-3.626.532-4.386,1.582-4.942,6.826-9.587,13.867-14.514,21.11l19.321,11.978c-1.471,1.91-2.408,3.128-3.362,4.366-7.662-5.171-14.934-10.077-22.46-15.154l15.557-23.258-40.556-6.445c2.669,4.437,4.717,8.44,7.34,12.021,2.244,3.063,1.536,4.879-1.5,6.928l-8.511-14.33C1040.709,720.019,1036.45,733.416,1031.946,747.585Zm2.994-425.126a220.131,220.131,0,0,0-82.623,45.5l.424,1.335,23.125-3.2c.216,2.051.395,3.754.579,5.492L954.8,373.656l-.669,1.334,29.7,30.9c17.673-14.821,36.405-26.03,57.337-33.436a4.054,4.054,0,0,0,1.817-3.42C1040.479,353.819,1037.772,338.64,1034.94,322.459Zm279.255,245.167c.645-8.567,1.429-18.14,2.014-27.725a5.372,5.372,0,0,0-1.344-3.945c-7.992-6.748-16.163-13.283-24.232-19.94-2.176-1.795-3.7-1.392-5.363.765-3.553,4.606-6.884,9.489-11.034,13.506-6.948,6.727-8.77,14.826-8.089,23.031a49.008,49.008,0,0,1,4.33,4.887c4.3,6.518,8.346,13.211,12.806,19.616a5.035,5.035,0,0,0,4.619,1.369c6.7-2.914,13.182-6.314,19.793-9.432A61.017,61.017,0,0,1,1314.195,567.626ZM943.414,696.176l15.945,13.816c1.092-2.109,1.553-4.507,2.614-4.811,8.906-2.558,17.922-4.731,27.5-7.173.844,6.364,1.609,12.14,2.572,19.4l18.959-24.5-19.925,2.911c-1.244-8.385-2.358-16.255-3.622-24.1-.252-1.561-.671-3.443-1.711-4.47-5.429-5.358-11.083-10.488-16.925-15.947-4.426,2.928-8.9,5.767-13.252,8.791-11.257,7.827-11.193,7.861-11.42,21.589C944.081,686.035,943.719,690.382,943.414,696.176ZM917.28,656.985c6.618,1.968,12.765,3.887,18.972,5.584,1.667.455,3.98.977,5.208.208,7.994-5,15.771-10.354,23.281-15.365-6.61-10.308-12.79-19.963-19-29.6-.44-.682-1.029-1.564-1.711-1.747-6.8-1.824-13.628-3.521-20.806-5.344-.973,8.948-1.827,16.816-2.729,25.113l-23.332-4.267a206.544,206.544,0,0,0,25.065,40.8c.579.734,2.248,1.513,2.82,1.2,3.342-1.839,6.507-4,9.732-6.05l-.508-1.25-17.856-3.626C916.708,660.716,916.945,659.172,917.28,656.985Zm326.26-34.752c-5.8,7.886-11.716,15.7-17.282,23.754-.726,1.05-.254,3.783.658,4.974,6.278,8.193,12.8,16.2,19.288,24.229,3.083,3.816,6.265,7.551,9.682,11.659,11.137-12.308,20.891-24.673,29.519-39.664l-19.926,5.289C1264.088,637.789,1258.744,626.267,1243.54,622.233Zm-360.594-34.25-1.673,1.091q5.922,16.839,11.872,33.666a2.523,2.523,0,0,0,1.275,1.454c6.7,2.168,13.43,4.249,20.817,6.56.876-9.391,1.623-17.409,2.429-26.047l23.479,4.322c-1.9-4.684-3.475-8.327-4.847-12.047q-2.157-5.848-3.984-11.819c-3.107-10.19-3.128-10.491-13.647-8.349-9.96,2.028-19.778,4.751-29.659,7.168l.027,1.6c4.016,1.365,7.986,2.889,12.06,4.052,4.1,1.171,4.475,3.259,2.044,6.757Zm304.132,149.241c-3.308-7.01-6.173-12.457-8.457-18.137-1.536-3.82-3.529-5.7-7.791-4.674-3.887.936-4.1-1.211-3.275-4.258l6.59-.684-8.48-17.211c-8.434,2.849-16.493,5.411-24.381,8.419-1.119.427-2.1,3.085-1.97,4.611.8,9.447,1.929,18.866,2.963,28.293.624,5.7,1.274,11.39,2.054,18.35ZM1301.9,614.1c-1.817-2.215-3.07-3.489-4.029-4.956-4.011-6.135-8.08-12.241-11.824-18.538-1.769-2.974-3.437-4.052-6.706-2.176-6.635,3.808-13.067,8.39-20.209,10.776-7.093,2.37-8.172,8.178-10.915,13.3a4,4,0,0,1-.207.454c-1.633,2.279-.9,3.854,1.276,5.348,7.142,4.9,14.1,10.07,21.327,14.831,5.38,3.543,11.071,6.614,17.448,10.382C1292.924,633.184,1297.5,623.46,1301.9,614.1Zm-182-300.515q-.359,1.008-.716,2.018c2.795,4.489,5.363,9.143,8.456,13.415,2.415,3.335,1.718,5.2-1.255,7.779-10.324,8.947-9.836,8.791-1.593,19.878,6.257,8.417,13.834,13.464,24.937,14.007,6.007-15,12.086-30.178,18.689-46.667Zm108.4,399.17c-10.751-13.012-20.45-24.824-30.3-36.511-.69-.819-2.894-1.4-3.7-.924-7.824,4.65-15.5,9.55-23.5,14.556,1.308,3.086,3.02,6.028,3.806,9.2,1.947,7.861,6.263,12.006,14.729,10.772.562-.082,1.2.346,1.77.527-.463,3.02-.463,3.02-9.806,4.179,3.16,6.109,6.086,12,9.324,17.715.391.69,2.814,1.027,3.709.511C1205.4,726.408,1216.35,719.844,1228.3,712.758Zm77.771-245.844c-4.826-15.743-10.823-29.467-19.1-42.223-1.194,7.114-1.847,14.033-2.389,20.961-.258,3.289-1.462,4.937-5.3,3.5.755-7.2,1.5-14.307,2.307-21.985-5.247,1.725-7.536,4.22-7.442,9.032.1,4.975-.482,9.962-.743,14.945-.187,3.588-1.941,4.17-5.023,2.7.627-6.321,1.243-12.532,2.021-20.377-8.562,5.811-15.975,10.743-23.213,15.919-.675.483-.716,2.71-.257,3.789,3.122,7.338,6.374,14.625,9.811,21.819.533,1.115,2.425,2.558,3.365,2.355C1275.175,474.076,1290.2,470.564,1306.067,466.914ZM885.727,578.995l.785,1.235c12.8-3.461,25.626-6.844,38.369-10.51,1.236-.355,2.881-2.529,2.785-3.734-.543-6.789-1.461-13.555-2.515-20.288a4.2,4.2,0,0,0-2.549-2.908c-15.382-2.433-30.8-4.661-47.654-7.15,1.348,14.59,2.6,28.121,3.848,41.653l1.763.2c4.363-5.326,8.726-10.653,13.4-16.363l4.014,4.512ZM1029.2,741.405c4.68-14.26,8.938-27,12.909-39.82.3-.973-1.128-3.247-2.278-3.775-5.278-2.428-10.84-4.244-16.1-6.7-3.041-1.417-4.915-1.381-7.1,1.529-7.894,10.5-16.071,20.79-24.121,31.174-1.278,1.648-2.454,3.375-3.66,5.04,7.147,5.651,32.667,16.354,37.314,15.981-.351-5.276-11.076-5.406-7.192-13.289Zm286.775-210.447c1.186-15.769-4.443-51-9.264-59.575-.27.185-.657.307-.794.563q-4.482,8.35-8.913,16.728c-2.842,5.367-3.282,5.46-7.854,1.633-3.622-3.032-7.254-6.051-11.461-9.559-3.068,6.946-5.555,12.926-8.375,18.743-.838,1.727-2.616,3-4.676,5.259l2.917,26.908c6.91-8.479,13.154-16.143,19.757-24.246ZM1221.27,417.177l41.51-27.593c-8.924-12.791-38.355-38.024-46.3-39.523,3.461,7.616,6.38,15.066,10.169,22.044,2.926,5.388,2.94,9.351-1.414,14.133-5.544,6.089-10.135,13.046-14.838,19.235Zm-142.916-53.1c4.19-.45,8.488.359,10.9-1.408,7.143-5.238,13.542-11.492,20.343-17.446l-11.4-13.493,15.085-17.231H1068.9C1072.181,331.7,1075.191,347.484,1078.354,364.074Zm-198.365,127.8c-2.2,13.548-4.568,25.974-3.9,39.7l13.826-11.327,10.9,13.08,12.951-11.212,10.538,17.7c.992-10.482,2.029-20.016,2.642-29.578.084-1.313-1.659-3.492-3.036-4.023-6.674-2.573-13.487-4.8-20.3-7C896.038,496.77,888.417,494.484,879.989,491.872Zm319.9-153.02c-2.157,1.442-3.6,2.846-5.33,3.483-5.62,2.074-11.219,4.56-17.056,5.622-12.13,2.209-19.179,8.766-21.71,20.932-.723,3.476-.19,4.624,2.775,5.885,6.427,2.733,12.808,5.612,19.023,8.791,2.662,1.363,4,.958,5.736-1.352,6.5-8.655,13.152-17.2,19.867-25.685,2.819-3.565,5.935-6.9,9.2-10.66Zm85.563,80.911C1280,412,1274.774,404.95,1270.01,397.6c-2.563-3.954-5.129-3.789-7.863-.871a11.835,11.835,0,0,0-2.636,5.534c-.865,4.232-1.286,8.554-1.879,12.841-.373,2.7-1.7,3.641-4.473,2.932-3.7-.948-7.626-1.188-11.209-2.435-7.393-2.576-11.728,1.771-16.215,5.992l17.14,23.91C1256.923,437.009,1270.813,428.61,1285.447,419.763Zm-394.2,33.8c.765.977.919,1.392,1.176,1.471q21.2,6.526,42.415,13.006c2.982.916,4.594-.225,5.683-3.067a56.679,56.679,0,0,1,4.3-8.995c1.732-2.87,1.381-4.705-1.478-6.514-5.057-3.2-9.9-6.74-14.93-9.988-7.5-4.844-15.08-9.559-23.273-14.737Zm88.267-43.911L945.846,373.3l-20.077,21.51c14.1,8.9,27.376,17.332,40.744,25.606a3.648,3.648,0,0,0,3.356-.631C973.064,416.7,976.021,413.37,979.513,409.65Zm-90.489,79.773.03,1.639L928.3,501.109c2.882-9.838,5.38-18.369,8-27.323l-38.913-12.348c1.933,4.229,3.371,7.338,4.778,10.46,3.389,7.522,3.4,7.552-3.734,11.982C895.341,485.8,892.163,487.58,889.024,489.423ZM1213.41,352.848l-27.767,34.813,20.193,14.566c5.89-7.109,11.76-14.088,17.455-21.206a4.326,4.326,0,0,0,.446-3.65C1220.577,369.545,1217.213,361.8,1213.41,352.848ZM1200.6,670.756c2.6,3.36,4.963,6.551,7.5,9.593.65.779,1.941,1.655,2.8,1.532,9.8-1.392,19.578-2.97,30.46-4.669-7.362-8.576-14.087-16.411-21-24.464ZM1232.127,709c5.636-5.109,10.773-9.575,15.65-14.31,1.312-1.274,3.022-4.176,2.5-4.94-2.048-3.014-5.036-7.854-7.448-7.726-9.82.523-19.556,2.629-30.527,4.34ZM963.913,426.169c-3.407-2.4-6.427-4.736-9.665-6.712a7.233,7.233,0,0,0-4.569-1.013,107.987,107.987,0,0,0-13.116,3.061c-1.106.335-2.6,2.189-2.513,3.22.9,10.142,4.021,18.9,15.766,21.691Zm72.222-104.484-.3,1.787,20.2,19.286,12.533-28.129ZM1303.2,605.53l1.882-.369q3.777-14.687,7.553-29.372l-1.443-.937-23.59,9.28ZM1265.4,561.436c-2.9,11.056-5.559,21.214-8.4,32.046l24.114-10.688ZM962.254,710.609l-.564,1.553,25.72,16.85c-.962-9.306-1.756-16.982-2.635-25.491Zm84.26-340.163,28.134-6.382-16.994-15.708C1053.9,355.8,1050.5,362.542,1046.514,370.446ZM924.051,399.364l-1.559-.276L907.25,421.207a81.021,81.021,0,0,0,18.148-2.425c.78-.185,1.708-2.348,1.548-3.447C926.171,409.984,925.05,404.683,924.051,399.364Zm200.121-67.345L1116.225,320l-11.946,11.2c3.261,3.761,6.132,7.073,9.3,10.728ZM881.3,485.721l1.188.955c4.653-2.7,9.348-5.336,13.917-8.173.745-.462,1.554-2.07,1.288-2.719-2.277-5.55-4.795-11-7.241-16.48l-1.466.159Zm217.473-124.252.964,1.371,25.894,2.212-12.722-16.631ZM995.365,690.616l19.977-3.219-21.067-13.08C994.675,680.3,994.993,685.058,995.365,690.616ZM1275.018,477.88l-15.846,4.3,4.244,16.4,1.324.362C1267.935,492.4,1271.131,485.847,1275.018,477.88Zm-207.57-147.772-1.176-.059c-1.825,4.05-3.744,8.062-5.411,12.175-.418,1.03-.535,2.939.076,3.5,3.174,2.924,6.629,5.543,9.986,8.268l.982-.776Q1069.676,341.664,1067.448,330.108Zm-24.258,5.914-.924.553c1.406,7.6,2.812,15.193,4.494,24.285,2.858-5.181,5.049-8.878,6.912-12.733a3.779,3.779,0,0,0-.45-3.468C1050.024,341.626,1046.559,338.874,1043.19,336.022ZM1280.247,476.5l13.146,11.1c2.319-5.337,4.3-9.892,6.754-15.54ZM937.953,690.636c.783-7.287,1.4-13.029,2.168-20.169l-12.35,8.914Zm-8.771-287.145c.924,4.665,1.47,8.068,2.344,11.386.219.828,1.613,2.057,2.265,1.943,3.733-.648,7.4-1.647,11.1-2.526l-.059-1.275Zm264.836-66.343-.642-1.879c-9.785,2.193-19.38,4.9-28.217,9.657l.784,2.16Zm-25.693.727,15.782-5.319-.1-1.231-11.73-4.764C1171.034,330.116,1169.937,333.258,1168.325,337.875ZM916.971,426.538l13.154,8.567C931.527,423.029,929.2,421.457,916.971,426.538Zm337.543-23.757-1.049-.757-11.857,7.83.519,1.257,10.351,1.79Zm13.257,234.261-1.149.932c1.446,2.776,2.3,6.346,4.563,8.024,1.309.972,4.878-1.1,7.43-1.8q-.151-.672-.3-1.344ZM905.95,534.333l.384,1.3,12.368,1.432-5.7-7.648Zm-16.506-8.072-7.516,6.123,14.447,1.291Z" stroke="#933" stroke-width="3"/>
      <path id="Tracé_27" data-name="Tracé 27" d="M929.68,535.131c.962-93.3,76.4-168.153,168.543-167.377,90.155.76,164.042,73.4,164.083,166.2.042,94.477-77.469,170.254-171.45,168.478C1002.054,700.757,928.751,625.295,929.68,535.131Zm170.532-10.614a10.813,10.813,0,0,1-.821-2.463c.023-20.174.127-40.347.087-60.52-.007-3.211,1.9-3.161,4.163-3.572,1.527-.276,2.877-1.534,4.306-2.352-1.47-.807-2.944-1.6-4.407-2.422-1.37-.765-2.728-1.55-4.091-2.327,1.449-.89,2.873-1.823,4.353-2.658,1.317-.743,2.695-1.377,4.047-2.058-1.352-.9-2.683-1.842-4.06-2.7-1.422-.892-2.89-1.711-4.337-2.561,1.371-.761,2.746-1.516,4.113-2.286,1.464-.825,2.92-1.665,4.38-2.5-1.549-.845-3.119-1.656-4.641-2.547-1.317-.771-3.445-1.428-3.7-2.5-.679-2.838,1.568-3,3.763-3,6.165,0,12.338.058,18.491-.244,6.923-.341,10.37-3.7,10.788-10.577a138.5,138.5,0,0,0-.019-15.491c-.066-1.288-1.547-2.5-2.378-3.753-.976,1.286-2.635,2.492-2.8,3.874a114.118,114.118,0,0,0-.323,11.487c-.1,6.692-1.371,8.34-8.039,8.839-5.138.384-10.329-.006-15.486.2-3.192.127-4.459-.895-4.337-4.254.224-6.16.126-12.337-.014-18.5a6.253,6.253,0,0,0-1.333-3.978c-.724-.733-2.9-1.093-3.6-.549a5.9,5.9,0,0,0-2.114,3.982c-.2,7.607-.095,15.222-.095,23.073-8.387,0-15.682.263-22.945-.114-3.5-.181-5.56-2.672-5.619-6.482-.072-4.667-.115-9.348-.555-13.987-.116-1.224-1.648-2.315-2.53-3.467-.75,1.132-2.073,2.228-2.148,3.4-.285,4.485-.17,9-.2,13.5-.065,9.267,2.438,12.09,11.776,13.078a71.055,71.055,0,0,0,7.485.318c3.5,0,7.018-.39,10.487-.1,1.356.112,2.6,1.6,3.893,2.463a31.417,31.417,0,0,1-3.544,2.791c-.639.38-1.766-.071-2.419.3a12.617,12.617,0,0,0-2.316,2.194c.757.763,1.393,1.931,2.3,2.2a31.892,31.892,0,0,0,5.4.732c1.735,4.2-.683,4.395-3.763,4.612-1.3.091-2.5,1.521-3.746,2.343a31.577,31.577,0,0,0,3.665,2.533c.671.347,1.8-.154,2.429.222.836.5,1.906,1.48,1.91,2.26s-1.021,1.877-1.863,2.3c-.806.4-2.078-.168-2.926.2a19.986,19.986,0,0,0-3.38,2.309c1.076.8,2.22,2.353,3.218,2.264,4.92-.439,5.265,2.322,5.229,6.144-.17,18.172-.156,36.345-.23,54.518-.006,1.421-.186,2.84-.369,5.462L1038.714,474.4c4.143-.5,6.61-.592,8.966-1.154,1.27-.3,2.35-1.4,3.516-2.146-1.087-1.071-2.071-2.895-3.281-3.06-2.724-.37-6.1-.856-8.246.379-5.722,3.292-8.007-.395-10.9-4.11,3.786-4.187,7.667-8.071,11.062-12.341,4.158-5.229,4.216-9.858.123-13.928-5.194-5.164-10.66-10.07-16.235-14.822-1.026-.873-3.128-.482-4.733-.675.41,1.558.333,3.6,1.316,4.59,4.222,4.252,8.91,8.045,13.093,12.332,1.481,1.517,3.253,4.369,2.751,5.917-2.084,6.424-7.088,10.63-12.306,14.732v-7.6l-7.245,1.949c0-1.717-.137-3.472.025-5.2a12.962,12.962,0,0,0-7.263-13.1,12.393,12.393,0,0,0-14.351,2.157,12.58,12.58,0,0,0-2.473,15.122c2.717,5.029,8.535,7.4,14.566,6.169a25.291,25.291,0,0,1,5.082-.052l-2.6,7.774,8.048-1.612,1.042.721c-4.106,4.024-8.118,8.151-12.352,12.036-2.97,2.725-5.919,2.242-8.793-.589-4.866-4.792-9.8-9.527-14.949-14.006-.958-.833-3.059-.351-4.633-.475.344,1.409.23,3.273,1.105,4.155,5.513,5.557,11.247,10.894,16.9,16.309,3.156,3.021,6.874,3.617,10.561,1.561a41.934,41.934,0,0,0,7.849-6.043c2.987-2.773,5.679-5.863,8.345-8.655,4.828,2.678,6.645,5.116,3.847,10.266-1.492,2.745-.467,7.018-.053,10.54.12,1.015,2.064,1.816,3.172,2.715.635-1.2,1.645-2.354,1.832-3.625.486-3.308.611-6.669.881-10.009l1.452-.291,52.042,49.125-.445,1.121H990.291c0-3.751.116-7.222-.026-10.683-.251-6.137-.339-12.308-1.106-18.388-.56-4.444-3.614-7.03-8.289-7.15-5.16-.133-10.335-.389-15.479-.124-1.753.091-3.432,1.6-5.145,2.459,1.723.876,3.385,2.323,5.182,2.514,4.294.457,8.665.141,12.98.474,4.763.367,6.374,3.312,6.386,10.041.008,5.077-3.747,3.207-6.1,3.369-4.982.342-10,.124-14.988.444-1.181.076-2.285,1.368-3.424,2.1,1.121.938,2.106,2.269,3.4,2.711a15.951,15.951,0,0,0,4.958.337c5.256.03,10.511.011,15.747.011v12.529c-7.749,0-15.046.064-22.342-.031-2.9-.038-5.047.61-4.929,4,.105,3.021,2.066,3.74,4.777,3.724,6-.036,12.021.446,17.994.081,5.185-.317,5.018,2.622,5.055,6.223.038,3.749-.632,5.94-5.225,5.6a116.288,116.288,0,0,0-15.979.147c-1.4.089-2.7,1.64-4.047,2.519,1.42.854,2.782,2.3,4.273,2.445,3.8.381,7.659.1,11.488.246,2.956.112,5.9.464,8.732.7,1.54,9.8-.361,12.232-9.506,12.65-3.662.168-7.351.063-10.98.488-1.134.132-2.113,1.592-3.163,2.445,1.059.794,2.065,2.183,3.184,2.281a142.795,142.795,0,0,0,15.468.686c6.48-.14,10.073-3.089,10.808-9.5.7-6.09.434-12.291.553-18.445.053-2.748.009-5.5.009-8.828h96.028l-51.7,53.957c-.773-4.6-1.154-7.867-1.936-11.034-.311-1.261-1.508-2.3-2.3-3.445-1.065.959-3.034,1.916-3.038,2.879-.014,4.008-.323,8.387,1.15,11.936,1.809,4.359.82,6.423-3.06,8.223-1.237-1.074-2.228-2.326-3.522-2.964a38.174,38.174,0,0,0-5.559-1.819c.76,1.757,1.465,3.541,2.31,5.255a4.776,4.776,0,0,0,1.4,1.407c2.55,2.019,1.785,3.472-.561,4.717-6.211-5.3-12.1-10.719-18.4-15.586-4.578-3.533-8.989-2.9-13.017,1.129-3.53,3.535-7.054,7.105-10.232,10.949-1.009,1.221-.9,3.37-1.3,5.094,1.685-.439,3.807-.385,4.972-1.414,3.11-2.746,5.749-6.017,8.69-8.966,2.438-2.446,5.4-3.837,8.456-1.363,5.654,4.58,11.072,9.451,16.924,14.489l-4.159,4.384-7.112-.651c.05,1.2.082,2.4.156,3.6.086,1.4.209,2.787.316,4.181-1.42-.012-2.84-.035-4.26-.034-1.058,0-2.509-.373-3.067.165-.59.569-.834,2.49-.354,3.006,2.127,2.286,1.055,3.975-.173,6.181-.546.983.057,3.393.974,4.181s2.919.6,4.349.326c1.021-.193,1.882-1.229,2.815-1.888l-.1,1.2,6.833,1.536-2.384-8.648,1.222-1.158,8.322,2c-.561-2.5-1.123-4.994-1.927-8.567l4.94-5.033c5.174,5.685,9.831,10.848,14.54,15.963,3.331,3.618,3.195,6.983-.307,10.452a95.571,95.571,0,0,0-8.08,8.847c-.89,1.136-.756,3.074-1.089,4.646,1.681-.388,3.824-.255,4.955-1.262a132.773,132.773,0,0,0,9.39-9.672c4.986-5.442,5.318-9.644.927-15.623a48.361,48.361,0,0,0-6.228-6.442c-2.8-2.611-5.92-4.9-8.528-7.687-.907-.967-.7-2.979-1.141-5.207,5.037,1.371,6.336,6.878,12.3,4.654l-6.543-8.914c1.831-3.372,3.815-3.579,7.138-2.313a27.116,27.116,0,0,0,11.158,1.478c2.045-.135,3.949-2.418,5.916-3.732l-.674-1.732-14.721-1.6-.425-1.42c16.652-17.351,33.3-34.7,50.174-52.284.617,1.1.76,1.239.761,1.377q.086,45.758.194,91.515c.011,2.975-1.305,3.688-3.944,3.6-5.328-.17-10.669-.359-15.993-.184-13.092.431-15.4,3.782-16.108,14.218-.018.263-.365.5-.558.754l-.444-.648-5.114,3.459,6.783,5.121c-1.076.781-2.388,1.674-3.631,2.653-1.062.838-2.044,1.775-3.062,2.668,1.19.847,2.313,2.279,3.584,2.427a53.9,53.9,0,0,0,10.472.222c1.455-.116,2.81-1.485,4.211-2.284a41.363,41.363,0,0,1-3.505-2.664,29.189,29.189,0,0,1-2.492-2.972c.906-.683,1.836-1.336,2.711-2.057,1.12-.925,2.2-1.906,3.289-2.862a27.679,27.679,0,0,0-3.239-2.445,10.135,10.135,0,0,0-2.71-.675c-.256-6.935,1.658-8.8,6.733-8.06l4.156,5.062,4.8-5.925c3.006,0,7.315-.2,11.579.154.941.078,2.411,2.078,2.453,3.235.156,4.3-3.31,2.335-5.431,2.839-2.742.651-6.435.736-7.907,2.543-2.574,3.159-1.028,11.57,2.441,15.042.667-2.843.919-5.174,1.79-7.244.73-1.735,1.9-4,3.392-4.5,1.563-.523,5.388.812,5.378,1.275a46.471,46.471,0,0,1-1.509,9.453c-.252,1.083-1.6,2.046-1.555,3.019.036.722,1.474,1.877,2.372,1.963a51.609,51.609,0,0,0,9.47.207c2.87-.258,3.241-2.618,1.569-4.273-3.9-3.858-1.273-7.874-1.62-11.8,8.264-.645,8.263-.645,9.2,6.863a3.4,3.4,0,0,0,.258,1.459,30.924,30.924,0,0,0,2.137,2.451c.753-.746,1.846-1.357,2.206-2.26,3.264-8.187-.391-13.989-8.955-14.388-.666-.031-1.534.216-1.961-.115a39.594,39.594,0,0,1-3.324-3.173c1.132-1.055,2.171-2.864,3.414-3.018,3.28-.406,6.649-.055,9.982-.081,2.515-.021,4.66.17,4.907,3.509.056.754,1.586,2.087,2.175,1.958a5.284,5.284,0,0,0,2.587-2.2,9.562,9.562,0,0,0,.883-2.768c.923.1,1.78-.071,2.171.279,1.723,1.543,3.313,3.237,4.95,4.875-1.309,1.038-2.659,2.029-3.911,3.132-.7.615-1.888,1.735-1.723,2.073a9.974,9.974,0,0,0,2.4,2.632c1.064.978,2.2,1.88,3.3,2.814-1.017.82-2.09,1.581-3.034,2.478-.964.915-1.8,1.964-2.693,2.954,1.117.774,2.182,2.107,3.361,2.218a64.256,64.256,0,0,0,10.947.16c1.438-.112,2.778-1.479,4.163-2.275-1.139-.928-2.172-2.438-3.438-2.668-3.041-.555-4.1-1.774-3.329-3.578l6.74-4.007-6.684-4.681c-1.518-10.24-4.032-12.449-15.83-12.689-5.331-.109-10.684-.238-15.994.125-4.518.308-5.548-1.455-5.522-5.731.176-28.675.087-57.351.108-86.027,0-1.741.2-3.481.4-6.6l50.057,47.086c-1.569,1.878-2.9,3.023-3.607,4.471-.477.976-.078,2.38-.072,3.593,1.176-.183,2.544-.049,3.483-.62a28.438,28.438,0,0,0,3.905-3.351c3.251,1.532,3.464,3,1.184,5.419-1.112,1.181-1.16,3.363-1.689,5.092a34.922,34.922,0,0,0,5.421-1.862c.732-.381.957-1.735,1.267-2.355,4.334,1.956,4.13,3.626,2.082,6.181-1,1.247-.886,3.385-1.276,5.12,1.587-.6,3.61-.788,4.675-1.895,2.765-2.87,4.412-1.984,6.224,1.339-1.706,1.8-3.465,3.529-5.087,5.38-3.727,4.256-7.639,8.383-11,12.917-2.845,3.838-3.024,8.207.54,11.864,3.951,4.055,8.075,7.964,12.393,11.618,1.023.865,3.121.46,4.724.639-.364-1.455-.283-3.317-1.174-4.29-2.919-3.189-6.244-6-9.311-9.061-2.432-2.426-3.918-5.372-1.464-8.449,4.634-5.812,9.568-11.383,14.625-17.345,5.9,5.512,11.158,10.347,16.318,15.286,2.081,1.993,4.189,3.767,6.779,1.146,2.835-2.868.237-4.616-1.65-6.556-5.085-5.227-10.068-10.552-15.262-16.018,4.59-4.607,9.186-9.659,14.255-14.181,4.655-4.154,6.337-3.853,11.111.475,2.961,2.685,5.735,5.6,8.862,8.068.981.774,2.84.434,4.3.6-.216-1.459.078-3.373-.742-4.292-2.765-3.1-5.937-5.835-8.934-8.73-7.107-6.865-11.686-7.15-18.94-.487-4.281,3.932-8.092,8.388-12.014,12.7-2.865,3.148-4.628,2.078-6.178-1.146a8.371,8.371,0,0,0,.982-1.392c.842-2.069,1.631-4.16,2.438-6.243a35.209,35.209,0,0,1-5.84,2.388,10.348,10.348,0,0,1-3.782-.336c1.016-3.739,1.685-6.205,2.355-8.67l-8.531,3.109c-2.828-1.083-1.5-2.916.209-5.241.877-1.194.819-3.074,1.184-4.644a37.285,37.285,0,0,0-4.783,1.52,16.255,16.255,0,0,0-3,2.49l-48.78-45.976H1165.1a97.211,97.211,0,0,0-6,7.96c-.8,1.322-.756,3.15-1.094,4.749,1.717-.07,4.182.556,5.013-.338,2.757-2.967,4.855-6.536,7.353-9.759a48.917,48.917,0,0,1,4.564-4.369c.36,3.3.255,4.865.765,6.2.394,1.028,1.557,1.761,2.379,2.625a16.19,16.19,0,0,0,2.383-2.64c.373-.642-.049-1.713.253-2.439a13.778,13.778,0,0,1,1.73-2.509c.841.64,1.984,1.108,2.464,1.953,1.227,2.156,1.929,4.627,3.26,6.705,2.26,3.526,5.113,6.175,10.906,3.756l-8.185-12.217h13.335c0,4.356-.088,8.172.024,11.983.116,3.995.269,8,.686,11.97.539,5.128,3.826,8.663,8.514,8.889,5.822.28,11.67.295,17.492.068,1.239-.049,2.418-1.631,3.625-2.507-1.19-.9-2.321-2.452-3.58-2.564-3.966-.354-7.982-.155-11.978-.188-6.272-.053-8.224-1.6-8.634-7.761-.364-5.477-.083-10.994-.3-16.485-.119-3.072,1.206-4.139,4.11-4.138,5.166,0,10.332-.17,15.5-.282,2.542-.056,5.381.1,5.334-3.584-.048-3.8-2.882-3.9-5.7-3.885-5.33.018-10.671.192-15.98-.143-1.161-.073-3.107-1.972-3.15-3.089-.224-5.816-.031-11.653.176-17.478.176-4.931,2.9-7.072,7.81-6.949a118.422,118.422,0,0,0,12.986-.327c1.081-.093,2.037-1.634,3.051-2.509-1.033-.761-2-2.051-3.11-2.189-3.794-.469-7.637-.582-11.465-.742-10.95-.457-15.006,3.145-15.458,14.035-.22,5.325.1,10.671-.085,16-.042,1.2-1.081,3.319-1.821,3.392-3.614.355-7.282.16-10.931.16l-.614-1.926c2.3-2.5,4.745-4.9,6.844-7.562.782-.993.767-2.614,1.116-3.948-1.242-.231-2.563-.854-3.714-.625-5.417,1.075-7.453,5.627-9.805,9.87a34.36,34.36,0,0,1-3.01,3.992,44.605,44.605,0,0,0-1.621-4.257,24.228,24.228,0,0,0-2.066-3.016,23.156,23.156,0,0,0-2.753,2.923c-.42.62-.135,1.68-.453,2.418a13.205,13.205,0,0,1-1.577,2.281c-.84-.627-1.955-1.082-2.469-1.911-1.827-2.944-3.075-6.326-5.251-8.954-2.366-2.858-5.643-4.451-10.181-2.05l10.158,13.139h-60.764l46.71-48.2c3.938,5.856.136,13.212,6.2,18.483.988-2.608,2.452-4.589,2.293-6.429-.379-4.4-1.6-8.718-2.322-13.1a42.881,42.881,0,0,1-.237-5.364c1.827-.067,3.655-.174,5.483-.192,4.03-.039,8.088.219,12.071-.221,1.015-.113,1.792-2.382,2.679-3.661-1.3-.547-2.558-1.415-3.9-1.577-2.932-.353-5.906-.347-8.863-.488l-.342-1.481,9.212-9.006c1.888,2.706,3.223,5.325,5.2,7.3a108.483,108.483,0,0,0,11.246,9.878c3.936,2.968,8.421,3.624,12.336-.062,4.237-3.992,8.246-8.248,12.08-12.629.785-.9.357-2.855.487-4.324-1.316.227-3.031.006-3.877.761-3.475,3.1-6.7,6.481-9.987,9.789-2.4,2.42-5.29,3.428-8.037,1.2-5.763-4.673-11.233-9.707-18.512-16.069,4.126-3.268,7.54-5.7,10.625-8.5a39.858,39.858,0,0,0,6.984-7.778c.857-1.341.02-3.765-.049-5.7-1.761.25-3.7.13-5.233.859-1.417.672-2.379,2.279-3.58,3.434-4.387,4.214-8.789,8.41-13.691,13.1-4.972-5.176-9.955-10.287-14.845-15.486-2.945-3.13-2.551-6.211.366-9.233,3.007-3.114,6.029-6.234,8.757-9.586.872-1.071.826-2.89,1.2-4.367-1.6.256-3.682-.036-4.713.869-3.37,2.96-6.4,6.318-9.482,9.592-5.715,6.064-5.968,9.989-.849,16.646a58.178,58.178,0,0,0,5.87,6.118c2.752,2.663,5.721,5.116,8.317,7.918.707.763,1.01,2.9.464,3.643-1.907,2.605-4.268,4.877-7.477,8.394-1.658-6.576-2.926-11.6-4.283-16.987-5.664,4.073-6.22,10.146-2.675,16.7.91,1.681,1.14,3.731,1.682,5.611-1.928-.489-3.837-1.074-5.786-1.45-5.317-1.026-10.624-2.363-15.992-2.732-2.023-.139-4.205,2.046-6.314,3.171l.417,1.854c6.821,3.057,15.8-2.039,22.036,4.975Z" stroke="#933" stroke-width="3"/>
      <path id="Tracé_28" data-name="Tracé 28" d="M1031.946,747.585c4.5-14.169,8.763-27.566,13.271-41.75l8.511,14.33c3.035-2.049,3.743-3.865,1.5-6.928-2.623-3.581-4.671-7.584-7.34-12.021l40.556,6.445-15.557,23.258c7.526,5.077,14.8,9.983,22.46,15.154.954-1.238,1.891-2.456,3.362-4.366l-19.321-11.978c4.927-7.243,9.572-14.284,14.514-21.11.76-1.05,2.851-1.4,4.386-1.582,10.4-1.271,20.833-2.261,31.209-3.683,3.325-.455,4.463.429,4.753,3.664,1.249,13.922,2.734,27.823,3.9,41.752.109,1.311-1.282,3.832-2.256,3.983-11.125,1.724-22.3,3.1-33.468,4.565l-.753-1.476,13.556-20.515-22.678-15.367-2.757,4.783,19,11.73c-4.282,6.309-8.49,12.616-12.859,18.81a4.146,4.146,0,0,1-2.968,1.425A207.971,207.971,0,0,1,1031.946,747.585Z" stroke="#933" stroke-width="3"/>
      <path id="Tracé_29" data-name="Tracé 29" d="M1034.94,322.459c2.832,16.181,5.539,31.36,8.045,46.571a4.054,4.054,0,0,1-1.817,3.42c-20.932,7.406-39.664,18.615-57.337,33.436l-29.7-30.9.669-1.334,21.642-2.077c-.184-1.738-.363-3.441-.579-5.492l-23.125,3.2-.424-1.335A220.131,220.131,0,0,1,1034.94,322.459Zm-15.654,56.848c1-9.391,1.948-18.224,2.924-27.359l-27.151-4.6c-.745,8.5-1.554,16.275-1.974,24.066-.065,1.2,1.476,3.357,2.59,3.6C1003.143,376.6,1010.7,377.8,1019.286,379.307Z" stroke="#933" stroke-width="3"/>
      <path id="Tracé_30" data-name="Tracé 30" d="M1314.195,567.626a61.017,61.017,0,0,0-6.5,2.132c-6.611,3.118-13.1,6.518-19.793,9.432a5.035,5.035,0,0,1-4.619-1.369c-4.46-6.4-8.5-13.1-12.806-19.616a49.008,49.008,0,0,0-4.33-4.887c-.681-8.205,1.141-16.3,8.089-23.031,4.15-4.017,7.481-8.9,11.034-13.506,1.664-2.157,3.187-2.56,5.363-.765,8.069,6.657,16.24,13.192,24.232,19.94a5.372,5.372,0,0,1,1.344,3.945C1315.624,549.486,1314.84,559.059,1314.195,567.626Z" stroke="#933" stroke-width="3"/>
      <path id="Tracé_31" data-name="Tracé 31" d="M943.414,696.176c.3-5.794.667-10.141.739-14.493.227-13.728.163-13.762,11.42-21.589,4.349-3.024,8.826-5.863,13.252-8.791,5.842,5.459,11.5,10.589,16.925,15.947,1.04,1.027,1.459,2.909,1.711,4.47,1.264,7.845,2.378,15.715,3.622,24.1l19.925-2.911-18.959,24.5c-.963-7.263-1.728-13.039-2.572-19.4-9.582,2.442-18.6,4.615-27.5,7.173-1.061.3-1.522,2.7-2.614,4.811Z" stroke="#933" stroke-width="3"/>
      <path id="Tracé_32" data-name="Tracé 32" d="M917.28,656.985c-.335,2.187-.572,3.731-.868,5.655l17.856,3.626.508,1.25c-3.225,2.051-6.39,4.211-9.732,6.05-.572.315-2.241-.464-2.82-1.2a206.544,206.544,0,0,1-25.065-40.8l23.332,4.267c.9-8.3,1.756-16.165,2.729-25.113,7.178,1.823,14.009,3.52,20.806,5.344.682.183,1.271,1.065,1.711,1.747,6.214,9.634,12.394,19.289,19,29.6-7.51,5.011-15.287,10.362-23.281,15.365-1.228.769-3.541.247-5.208-.208C930.045,660.872,923.9,658.953,917.28,656.985Z" stroke="#933" stroke-width="3"/>
      <path id="Tracé_33" data-name="Tracé 33" d="M1243.54,622.233c15.2,4.034,20.548,15.556,21.939,30.241l19.926-5.289c-8.628,14.991-18.382,27.356-29.519,39.664-3.417-4.108-6.6-7.843-9.682-11.659-6.488-8.03-13.01-16.036-19.288-24.229-.912-1.191-1.384-3.924-.658-4.974C1231.824,637.933,1237.738,630.119,1243.54,622.233Z" stroke="#933" stroke-width="3"/>
      <path id="Tracé_34" data-name="Tracé 34" d="M882.946,587.983l20.193,8.408c2.431-3.5,2.058-5.586-2.044-6.757-4.074-1.163-8.044-2.687-12.06-4.052l-.027-1.6c9.881-2.417,19.7-5.14,29.659-7.168,10.519-2.142,10.54-1.841,13.647,8.349q1.818,5.964,3.984,11.819c1.372,3.72,2.951,7.363,4.847,12.047l-23.479-4.322c-.806,8.638-1.553,16.656-2.429,26.047-7.387-2.311-14.116-4.392-20.817-6.56a2.523,2.523,0,0,1-1.275-1.454q-5.98-16.816-11.872-33.666Z" stroke="#933" stroke-width="3"/>
      <path id="Tracé_35" data-name="Tracé 35" d="M1187.078,737.224l-42.747,14.709c-.78-6.96-1.43-12.654-2.054-18.35-1.034-9.427-2.163-18.846-2.963-28.293-.129-1.526.851-4.184,1.97-4.611,7.888-3.008,15.947-5.57,24.381-8.419l8.48,17.211-6.59.684c-.825,3.047-.612,5.194,3.275,4.258,4.262-1.026,6.255.854,7.791,4.674C1180.905,724.767,1183.77,730.214,1187.078,737.224Z" stroke="#933" stroke-width="3"/>
      <path id="Tracé_36" data-name="Tracé 36" d="M1301.9,614.1c-4.4,9.357-8.975,19.081-13.839,29.422-6.377-3.768-12.068-6.839-17.448-10.382-7.228-4.761-14.185-9.934-21.327-14.831-2.18-1.494-2.909-3.069-1.276-5.348a4,4,0,0,0,.207-.454c2.743-5.123,3.822-10.931,10.915-13.3,7.142-2.386,13.574-6.968,20.209-10.776,3.269-1.876,4.937-.8,6.706,2.176,3.744,6.3,7.813,12.4,11.824,18.538C1298.829,610.614,1300.082,611.888,1301.9,614.1Z" stroke="#933" stroke-width="3"/>
      <path id="Tracé_37" data-name="Tracé 37" d="M1119.9,313.588l48.518,10.43c-6.6,16.489-12.682,31.668-18.689,46.667-11.1-.543-18.68-5.59-24.937-14.007-8.243-11.087-8.731-10.931,1.593-19.878,2.973-2.575,3.67-4.444,1.255-7.779-3.093-4.272-5.661-8.926-8.456-13.415Q1119.543,314.6,1119.9,313.588Z" stroke="#933" stroke-width="3"/>
      <path id="Tracé_38" data-name="Tracé 38" d="M1228.3,712.758c-11.946,7.086-22.9,13.65-33.966,20.025-.895.516-3.318.179-3.709-.511-3.238-5.715-6.164-11.606-9.324-17.715,9.343-1.159,9.343-1.159,9.806-4.179-.571-.181-1.208-.609-1.77-.527-8.466,1.234-12.782-2.911-14.729-10.772-.786-3.172-2.5-6.114-3.806-9.2,8-5.006,15.678-9.906,23.5-14.556.8-.478,3.008.1,3.7.924C1207.846,687.934,1217.545,699.746,1228.3,712.758Z" stroke="#933" stroke-width="3"/>
      <path id="Tracé_39" data-name="Tracé 39" d="M1306.067,466.914c-15.87,3.65-30.892,7.162-45.965,10.432-.94.2-2.832-1.24-3.365-2.355-3.437-7.194-6.689-14.481-9.811-21.819-.459-1.079-.418-3.306.257-3.789,7.238-5.176,14.651-10.108,23.213-15.919-.778,7.845-1.394,14.056-2.021,20.377,3.082,1.473,4.836.891,5.023-2.7.261-4.983.841-9.97.743-14.945-.094-4.812,2.2-7.307,7.442-9.032-.806,7.678-1.552,14.79-2.307,21.985,3.838,1.437,5.042-.211,5.3-3.5.542-6.928,1.195-13.847,2.389-20.961C1295.244,437.447,1301.241,451.171,1306.067,466.914Z" stroke="#933" stroke-width="3"/>
      <path id="Tracé_40" data-name="Tracé 40" d="M885.727,578.995l12.251-13.354-4.014-4.512c-4.679,5.71-9.042,11.037-13.4,16.363l-1.763-.2c-1.25-13.532-2.5-27.063-3.848-41.653,16.858,2.489,32.272,4.717,47.654,7.15a4.2,4.2,0,0,1,2.549,2.908c1.054,6.733,1.972,13.5,2.515,20.288.1,1.2-1.549,3.379-2.785,3.734-12.743,3.666-25.567,7.049-38.369,10.51Z" stroke="#933" stroke-width="3"/>
      <path id="Tracé_41" data-name="Tracé 41" d="M1029.2,741.405l-10.236-9.858c-3.884,7.883,6.841,8.013,7.192,13.289-4.647.373-30.167-10.33-37.314-15.981,1.206-1.665,2.382-3.392,3.66-5.04,8.05-10.384,16.227-20.673,24.121-31.174,2.188-2.91,4.062-2.946,7.1-1.529,5.265,2.454,10.827,4.27,16.1,6.7,1.15.528,2.579,2.8,2.278,3.775C1038.142,714.409,1033.884,727.145,1029.2,741.405Z" stroke="#933" stroke-width="3"/>
      <path id="Tracé_42" data-name="Tracé 42" d="M1315.979,530.958l-28.663-23.546c-6.6,8.1-12.847,15.767-19.757,24.246l-2.917-26.908c2.06-2.262,3.838-3.532,4.676-5.259,2.82-5.817,5.307-11.8,8.375-18.743,4.207,3.508,7.839,6.527,11.461,9.559,4.572,3.827,5.012,3.734,7.854-1.633q4.437-8.375,8.913-16.728c.137-.256.524-.378.8-.559C1311.536,479.955,1317.165,515.189,1315.979,530.958Z" stroke="#933" stroke-width="3"/>
      <path id="Tracé_43" data-name="Tracé 43" d="M1221.27,417.177l-10.875-11.7c4.7-6.189,9.294-13.146,14.838-19.235,4.354-4.782,4.34-8.745,1.414-14.133-3.789-6.978-6.708-14.428-10.169-22.044,7.947,1.5,37.378,26.732,46.3,39.523Z" stroke="#933" stroke-width="3"/>
      <path id="Tracé_44" data-name="Tracé 44" d="M1078.354,364.074c-3.163-16.59-6.173-32.377-9.453-49.578h44.381L1098.2,331.727l11.4,13.493c-6.8,5.954-13.2,12.208-20.343,17.446C1086.842,364.433,1082.544,363.624,1078.354,364.074Z" stroke="#933" stroke-width="3"/>
      <path id="Tracé_45" data-name="Tracé 45" d="M879.989,491.872c8.428,2.612,16.049,4.9,23.618,7.343,6.812,2.2,13.625,4.424,20.3,7,1.377.531,3.12,2.71,3.036,4.023-.613,9.562-1.65,19.1-2.642,29.578l-10.538-17.7-12.951,11.212-10.9-13.08-13.826,11.327C875.421,517.846,877.785,505.42,879.989,491.872Z" stroke="#933" stroke-width="3"/>
      <path id="Tracé_46" data-name="Tracé 46" d="M1199.884,338.852l12.506,7.016c-3.266,3.765-6.382,7.1-9.2,10.66-6.715,8.49-13.369,17.03-19.867,25.685-1.735,2.31-3.074,2.715-5.736,1.352-6.215-3.179-12.6-6.058-19.023-8.791-2.965-1.261-3.5-2.409-2.775-5.885,2.531-12.166,9.58-18.723,21.71-20.932,5.837-1.062,11.436-3.548,17.056-5.622C1196.282,341.7,1197.727,340.294,1199.884,338.852Z" stroke="#933" stroke-width="3"/>
      <path id="Tracé_47" data-name="Tracé 47" d="M1285.447,419.763c-14.634,8.847-28.524,17.246-42.572,25.74l-17.14-23.91c4.487-4.221,8.822-8.568,16.215-5.992,3.583,1.247,7.505,1.487,11.209,2.435,2.77.709,4.1-.235,4.473-2.932.593-4.287,1.014-8.609,1.879-12.841a11.835,11.835,0,0,1,2.636-5.534c2.734-2.918,5.3-3.083,7.863.871C1274.774,404.95,1280,412,1285.447,419.763Z" stroke="#933" stroke-width="3"/>
      <path id="Tracé_48" data-name="Tracé 48" d="M891.246,453.561l13.9-28.824c8.193,5.178,15.775,9.893,23.273,14.737,5.029,3.248,9.873,6.786,14.93,9.988,2.859,1.809,3.21,3.644,1.478,6.514a56.679,56.679,0,0,0-4.3,8.995c-1.089,2.842-2.7,3.983-5.683,3.067q-21.2-6.512-42.415-13.006C892.165,454.953,892.011,454.538,891.246,453.561Z" stroke="#933" stroke-width="3"/>
      <path id="Tracé_49" data-name="Tracé 49" d="M979.513,409.65c-3.492,3.72-6.449,7.051-9.644,10.136a3.648,3.648,0,0,1-3.356.631c-13.368-8.274-26.642-16.7-40.744-25.606l20.077-21.51Z" stroke="#933" stroke-width="3"/>
      <path id="Tracé_50" data-name="Tracé 50" d="M889.024,489.423c3.139-1.843,6.317-3.623,9.409-5.543,7.135-4.43,7.123-4.46,3.734-11.982-1.407-3.122-2.845-6.231-4.778-10.46L936.3,473.786c-2.623,8.954-5.121,17.485-8,27.323l-39.245-10.047Z" stroke="#933" stroke-width="3"/>
      <path id="Tracé_51" data-name="Tracé 51" d="M1213.41,352.848c3.8,8.953,7.167,16.7,10.327,24.523a4.326,4.326,0,0,1-.446,3.65c-5.7,7.118-11.565,14.1-17.455,21.206l-20.193-14.566Z" stroke="#933" stroke-width="3"/>
      <path id="Tracé_52" data-name="Tracé 52" d="M1200.6,670.756l19.763-18.008c6.914,8.053,13.639,15.888,21,24.464-10.882,1.7-20.658,3.277-30.46,4.669-.861.123-2.152-.753-2.8-1.532C1205.567,677.307,1203.206,674.116,1200.6,670.756Z" stroke="#933" stroke-width="3"/>
      <path id="Tracé_53" data-name="Tracé 53" d="M1232.127,709l-19.822-22.636c10.971-1.711,20.707-3.817,30.527-4.34,2.412-.128,5.4,4.712,7.448,7.726.519.764-1.191,3.666-2.5,4.94C1242.9,699.426,1237.763,703.892,1232.127,709Z" stroke="#933" stroke-width="3"/>
      <path id="Tracé_54" data-name="Tracé 54" d="M963.913,426.169l-14.1,20.247c-11.745-2.79-14.862-11.549-15.766-21.691-.092-1.031,1.407-2.885,2.513-3.22a107.987,107.987,0,0,1,13.116-3.061,7.233,7.233,0,0,1,4.569,1.013C957.486,421.433,960.506,423.767,963.913,426.169Z" stroke="#933" stroke-width="3"/>
      <path id="Tracé_55" data-name="Tracé 55" d="M1036.135,321.685l32.434-7.056-12.533,28.129-20.2-19.286Z" stroke="#933" stroke-width="3"/>
      <path id="Tracé_56" data-name="Tracé 56" d="M1303.2,605.53l-15.6-21.4,23.59-9.28,1.443.937q-3.775,14.687-7.553,29.372Z" stroke="#933" stroke-width="3"/>
      <path id="Tracé_57" data-name="Tracé 57" d="M1265.4,561.436l15.716,21.358L1257,593.482C1259.839,582.65,1262.5,572.492,1265.4,561.436Z" stroke="#933" stroke-width="3"/>
      <path id="Tracé_58" data-name="Tracé 58" d="M962.254,710.609l22.521-7.088c.879,8.509,1.673,16.185,2.635,25.491l-25.72-16.85Z" stroke="#933" stroke-width="3"/>
      <path id="Tracé_59" data-name="Tracé 59" d="M1046.514,370.446c3.986-7.9,7.385-14.643,11.14-22.09l16.994,15.708Z" stroke="#933" stroke-width="3"/>
      <path id="Tracé_60" data-name="Tracé 60" d="M924.051,399.364c1,5.319,2.12,10.62,2.895,15.971.16,1.1-.768,3.262-1.548,3.447a81.021,81.021,0,0,1-18.148,2.425l15.242-22.119Z" stroke="#933" stroke-width="3"/>
      <path id="Tracé_61" data-name="Tracé 61" d="M1124.172,332.019l-10.591,9.908c-3.17-3.655-6.041-6.967-9.3-10.728l11.946-11.2Z" stroke="#933" stroke-width="3"/>
      <path id="Tracé_62" data-name="Tracé 62" d="M881.3,485.721l7.686-26.258,1.466-.159c2.446,5.48,4.964,10.93,7.241,16.48.266.649-.543,2.257-1.288,2.719-4.569,2.837-9.264,5.471-13.917,8.173Z" stroke="#933" stroke-width="3"/>
      <path id="Tracé_63" data-name="Tracé 63" d="M1098.774,361.469l14.136-13.048,12.722,16.631-25.894-2.212Z" stroke="#933" stroke-width="3"/>
      <path id="Tracé_64" data-name="Tracé 64" d="M995.365,690.616c-.372-5.558-.69-10.311-1.09-16.3l21.067,13.08Z" stroke="#933" stroke-width="3"/>
      <path id="Tracé_65" data-name="Tracé 65" d="M1275.018,477.88c-3.887,7.967-7.083,14.516-10.278,21.066l-1.324-.362-4.244-16.4Z" stroke="#933" stroke-width="3"/>
      <path id="Tracé_66" data-name="Tracé 66" d="M1067.448,330.108q2.229,11.555,4.457,23.11l-.982.776c-3.357-2.725-6.812-5.344-9.986-8.268-.611-.563-.494-2.472-.076-3.5,1.667-4.113,3.586-8.125,5.411-12.175Z" stroke="#933" stroke-width="3"/>
      <path id="Tracé_67" data-name="Tracé 67" d="M1043.19,336.022c3.369,2.852,6.834,5.6,10.032,8.637a3.779,3.779,0,0,1,.45,3.468c-1.863,3.855-4.054,7.552-6.912,12.733-1.682-9.092-3.088-16.689-4.494-24.285Z" stroke="#933" stroke-width="3"/>
      <path id="Tracé_68" data-name="Tracé 68" d="M1280.247,476.5l19.9-4.439c-2.455,5.648-4.435,10.2-6.754,15.54Z" stroke="#933" stroke-width="3"/>
      <path id="Tracé_69" data-name="Tracé 69" d="M937.953,690.636l-10.182-11.255,12.35-8.914C939.353,677.607,938.736,683.349,937.953,690.636Z" stroke="#933" stroke-width="3"/>
      <path id="Tracé_70" data-name="Tracé 70" d="M929.182,403.491l15.646,9.528.059,1.275c-3.692.879-7.363,1.878-11.1,2.526-.652.114-2.046-1.115-2.265-1.943C930.652,411.559,930.106,408.156,929.182,403.491Z" stroke="#933" stroke-width="3"/>
      <path id="Tracé_71" data-name="Tracé 71" d="M1194.018,337.148l-28.075,9.938-.784-2.16c8.837-4.757,18.432-7.464,28.217-9.657Z" stroke="#933" stroke-width="3"/>
      <path id="Tracé_72" data-name="Tracé 72" d="M1168.325,337.875c1.612-4.617,2.709-7.759,3.951-11.314l11.73,4.764.1,1.231Z" stroke="#933" stroke-width="3"/>
      <path id="Tracé_73" data-name="Tracé 73" d="M916.971,426.538c12.233-5.081,14.556-3.509,13.154,8.567Z" stroke="#933" stroke-width="3"/>
      <path id="Tracé_74" data-name="Tracé 74" d="M1254.514,402.781l-2.036,10.12-10.351-1.79-.519-1.257,11.857-7.83Z" stroke="#933" stroke-width="3"/>
      <path id="Tracé_75" data-name="Tracé 75" d="M1267.771,637.042l10.542,5.808q.151.672.3,1.344c-2.552.7-6.121,2.776-7.43,1.8-2.26-1.678-3.117-5.248-4.563-8.024Z" stroke="#933" stroke-width="3"/>
      <path id="Tracé_76" data-name="Tracé 76" d="M905.95,534.333,913,529.421l5.7,7.648-12.368-1.432Z" stroke="#933" stroke-width="3"/>
      <path id="Tracé_77" data-name="Tracé 77" d="M889.444,526.261l6.931,7.414-14.447-1.291Z" stroke="#933" stroke-width="3"/>
      <path id="Tracé_78" data-name="Tracé 78" d="M1100.212,524.517l46.649-48.806c-6.241-7.014-15.215-1.918-22.036-4.975l-.417-1.854c2.109-1.125,4.291-3.31,6.314-3.171,5.368.369,10.675,1.706,15.992,2.732,1.949.376,3.858.961,5.786,1.45-.542-1.88-.772-3.93-1.682-5.611-3.545-6.549-2.989-12.622,2.675-16.7,1.357,5.384,2.625,10.411,4.283,16.987,3.209-3.517,5.57-5.789,7.477-8.394.546-.746.243-2.88-.464-3.643-2.6-2.8-5.565-5.255-8.317-7.918a58.178,58.178,0,0,1-5.87-6.118c-5.119-6.657-4.866-10.582.849-16.646,3.086-3.274,6.112-6.632,9.482-9.592,1.031-.9,3.112-.613,4.713-.869-.374,1.477-.328,3.3-1.2,4.367-2.728,3.352-5.75,6.472-8.757,9.586-2.917,3.022-3.311,6.1-.366,9.233,4.89,5.2,9.873,10.31,14.845,15.486,4.9-4.686,9.3-8.882,13.691-13.1,1.2-1.155,2.163-2.762,3.58-3.434,1.534-.729,3.472-.609,5.233-.859.069,1.933.906,4.357.049,5.7a39.858,39.858,0,0,1-6.984,7.778c-3.085,2.8-6.5,5.231-10.625,8.5,7.279,6.362,12.749,11.4,18.512,16.069,2.747,2.228,5.633,1.22,8.037-1.2,3.286-3.308,6.512-6.689,9.987-9.789.846-.755,2.561-.534,3.877-.761-.13,1.469.3,3.428-.487,4.324-3.834,4.381-7.843,8.637-12.08,12.629-3.915,3.686-8.4,3.03-12.336.062a108.483,108.483,0,0,1-11.246-9.878c-1.978-1.974-3.313-4.593-5.2-7.3l-9.212,9.006.342,1.481c2.957.141,5.931.135,8.863.488,1.345.162,2.6,1.03,3.9,1.577-.887,1.279-1.664,3.548-2.679,3.661-3.983.44-8.041.182-12.071.221-1.828.018-3.656.125-5.483.192a42.881,42.881,0,0,0,.237,5.364c.724,4.377,1.943,8.7,2.322,13.1.159,1.84-1.3,3.821-2.293,6.429-6.066-5.271-2.264-12.627-6.2-18.483l-46.71,48.2h60.764L1155.8,516.9c4.538-2.4,7.815-.808,10.181,2.05,2.176,2.628,3.424,6.01,5.251,8.954.514.829,1.629,1.284,2.469,1.911a13.205,13.205,0,0,0,1.577-2.281c.318-.738.033-1.8.453-2.418a23.156,23.156,0,0,1,2.753-2.923,24.228,24.228,0,0,1,2.066,3.016,44.605,44.605,0,0,1,1.621,4.257,34.36,34.36,0,0,0,3.01-3.992c2.352-4.243,4.388-8.8,9.805-9.87,1.151-.229,2.472.394,3.714.625-.349,1.334-.334,2.955-1.116,3.948-2.1,2.664-4.539,5.06-6.844,7.562l.614,1.926c3.649,0,7.317.2,10.931-.16.74-.073,1.779-2.188,1.821-3.392.186-5.327-.135-10.673.085-16,.452-10.89,4.508-14.492,15.458-14.035,3.828.16,7.671.273,11.465.742,1.11.138,2.077,1.428,3.11,2.189-1.014.875-1.97,2.416-3.051,2.509a118.422,118.422,0,0,1-12.986.327c-4.907-.123-7.634,2.018-7.81,6.949-.207,5.825-.4,11.662-.176,17.478.043,1.117,1.989,3.016,3.15,3.089,5.309.335,10.65.161,15.98.143,2.813-.01,5.647.087,5.7,3.885.047,3.685-2.792,3.528-5.334,3.584-5.165.112-10.331.285-15.5.282-2.9,0-4.229,1.066-4.11,4.138.213,5.491-.068,11.008.3,16.485.41,6.164,2.362,7.708,8.634,7.761,4,.033,8.012-.166,11.978.188,1.259.112,2.39,1.668,3.58,2.564-1.207.876-2.386,2.458-3.625,2.507-5.822.227-11.67.212-17.492-.068-4.688-.226-7.975-3.761-8.514-8.889-.417-3.97-.57-7.975-.686-11.97-.112-3.811-.024-7.627-.024-11.983H1190.9l8.185,12.217c-5.793,2.419-8.646-.23-10.906-3.756-1.331-2.078-2.033-4.549-3.26-6.705-.48-.845-1.623-1.313-2.464-1.953a13.778,13.778,0,0,0-1.73,2.509c-.3.726.12,1.8-.253,2.439a16.19,16.19,0,0,1-2.383,2.64c-.822-.864-1.985-1.6-2.379-2.625-.51-1.33-.4-2.894-.765-6.2a48.917,48.917,0,0,0-4.564,4.369c-2.5,3.223-4.6,6.792-7.353,9.759-.831.894-3.3.268-5.013.338.338-1.6.3-3.427,1.094-4.749a97.211,97.211,0,0,1,6-7.96h-58.637l48.78,45.976a16.255,16.255,0,0,1,3-2.49,37.285,37.285,0,0,1,4.783-1.52c-.365,1.57-.307,3.45-1.184,4.644-1.706,2.325-3.037,4.158-.209,5.241l8.531-3.109c-.67,2.465-1.339,4.931-2.355,8.67a10.348,10.348,0,0,0,3.782.336,35.209,35.209,0,0,0,5.84-2.388c-.807,2.083-1.6,4.174-2.438,6.243a8.371,8.371,0,0,1-.982,1.392c1.55,3.224,3.313,4.294,6.178,1.146,3.922-4.31,7.733-8.766,12.014-12.7,7.254-6.663,11.833-6.378,18.94.487,3,2.895,6.169,5.63,8.934,8.73.82.919.526,2.833.742,4.292-1.457-.17-3.316.17-4.3-.6-3.127-2.469-5.9-5.383-8.862-8.068-4.774-4.328-6.456-4.629-11.111-.475-5.069,4.522-9.665,9.574-14.255,14.181,5.194,5.466,10.177,10.791,15.262,16.018,1.887,1.94,4.485,3.688,1.65,6.556-2.59,2.621-4.7.847-6.779-1.146-5.16-4.939-10.419-9.774-16.318-15.286-5.057,5.962-9.991,11.533-14.625,17.345-2.454,3.077-.968,6.023,1.464,8.449,3.067,3.06,6.392,5.872,9.311,9.061.891.973.81,2.835,1.174,4.29-1.6-.179-3.7.226-4.724-.639-4.318-3.654-8.442-7.563-12.393-11.618-3.564-3.657-3.385-8.026-.54-11.864,3.361-4.534,7.273-8.661,11-12.917,1.622-1.851,3.381-3.583,5.087-5.38-1.812-3.323-3.459-4.209-6.224-1.339-1.065,1.107-3.088,1.291-4.675,1.895.39-1.735.277-3.873,1.276-5.12,2.048-2.555,2.252-4.225-2.082-6.181-.31.62-.535,1.974-1.267,2.355a34.922,34.922,0,0,1-5.421,1.862c.529-1.729.577-3.911,1.689-5.092,2.28-2.422,2.067-3.887-1.184-5.419a28.438,28.438,0,0,1-3.905,3.351c-.939.571-2.307.437-3.483.62-.006-1.213-.405-2.617.072-3.593.709-1.448,2.038-2.593,3.607-4.471l-50.057-47.086c-.193,3.117-.394,4.857-.4,6.6-.021,28.676.068,57.352-.108,86.027-.026,4.276,1,6.039,5.522,5.731,5.31-.363,10.663-.234,15.994-.125,11.8.24,14.312,2.449,15.83,12.689l6.684,4.681-6.74,4.007c-.776,1.8.288,3.023,3.329,3.578,1.266.23,2.3,1.74,3.438,2.668-1.385.8-2.725,2.163-4.163,2.275a64.256,64.256,0,0,1-10.947-.16c-1.179-.111-2.244-1.444-3.361-2.218.893-.99,1.729-2.039,2.693-2.954.944-.9,2.017-1.658,3.034-2.478-1.1-.934-2.236-1.836-3.3-2.814a9.974,9.974,0,0,1-2.4-2.632c-.165-.338,1.024-1.458,1.723-2.073,1.252-1.1,2.6-2.094,3.911-3.132-1.637-1.638-3.227-3.332-4.95-4.875-.391-.35-1.248-.179-2.171-.279a9.562,9.562,0,0,1-.883,2.768,5.284,5.284,0,0,1-2.587,2.2c-.589.129-2.119-1.2-2.175-1.958-.247-3.339-2.392-3.53-4.907-3.509-3.333.026-6.7-.325-9.982.081-1.243.154-2.282,1.963-3.414,3.018a39.594,39.594,0,0,0,3.324,3.173c.427.331,1.3.084,1.961.115,8.564.4,12.219,6.2,8.955,14.388-.36.9-1.453,1.514-2.206,2.26a30.924,30.924,0,0,1-2.137-2.451,3.4,3.4,0,0,1-.258-1.459c-.939-7.508-.938-7.508-9.2-6.863.347,3.929-2.279,7.945,1.62,11.8,1.672,1.655,1.3,4.015-1.569,4.273a51.609,51.609,0,0,1-9.47-.207c-.9-.086-2.336-1.241-2.372-1.963-.049-.973,1.3-1.936,1.555-3.019a46.471,46.471,0,0,0,1.509-9.453c.01-.463-3.815-1.8-5.378-1.275-1.49.5-2.662,2.766-3.392,4.5-.871,2.07-1.123,4.4-1.79,7.244-3.469-3.472-5.015-11.883-2.441-15.042,1.472-1.807,5.165-1.892,7.907-2.543,2.121-.5,5.587,1.459,5.431-2.839-.042-1.157-1.512-3.157-2.453-3.235-4.264-.352-8.573-.154-11.579-.154l-4.8,5.925-4.156-5.062c-5.075-.736-6.989,1.125-6.733,8.06a10.135,10.135,0,0,1,2.71.675,27.679,27.679,0,0,1,3.239,2.445c-1.094.956-2.169,1.937-3.289,2.862-.875.721-1.8,1.374-2.711,2.057a29.189,29.189,0,0,0,2.492,2.972,41.363,41.363,0,0,0,3.505,2.664c-1.4.8-2.756,2.168-4.211,2.284a53.9,53.9,0,0,1-10.472-.222c-1.271-.148-2.394-1.58-3.584-2.427,1.018-.893,2-1.83,3.062-2.668,1.243-.979,2.555-1.872,3.631-2.653l-6.783-5.121,5.114-3.459.444.648c.193-.251.54-.491.558-.754.709-10.436,3.016-13.787,16.108-14.218,5.324-.175,10.665.014,15.993.184,2.639.084,3.955-.629,3.944-3.6q-.176-45.758-.194-91.515c0-.138-.144-.275-.761-1.377-16.871,17.581-33.522,34.933-50.174,52.284l.425,1.42,14.721,1.6.674,1.732c-1.967,1.314-3.871,3.6-5.916,3.732a27.116,27.116,0,0,1-11.158-1.478c-3.323-1.266-5.307-1.059-7.138,2.313l6.543,8.914c-5.964,2.224-7.263-3.283-12.3-4.654.439,2.228.234,4.24,1.141,5.207,2.608,2.782,5.727,5.076,8.528,7.687a48.361,48.361,0,0,1,6.228,6.442c4.391,5.979,4.059,10.181-.927,15.623a132.773,132.773,0,0,1-9.39,9.672c-1.131,1.007-3.274.874-4.955,1.262.333-1.572.2-3.51,1.089-4.646a95.571,95.571,0,0,1,8.08-8.847c3.5-3.469,3.638-6.834.307-10.452-4.709-5.115-9.366-10.278-14.54-15.963l-4.94,5.033c.8,3.573,1.366,6.07,1.927,8.567l-8.322-2-1.222,1.158,2.384,8.648-6.833-1.536.1-1.2c-.933.659-1.794,1.7-2.815,1.888-1.43.27-3.442.452-4.349-.326s-1.52-3.2-.974-4.181c1.228-2.206,2.3-3.9.173-6.181-.48-.516-.236-2.437.354-3.006.558-.538,2.009-.164,3.067-.165,1.42,0,2.84.022,4.26.034-.107-1.394-.23-2.786-.316-4.181-.074-1.2-.106-2.4-.156-3.6l7.112.651,4.159-4.384c-5.852-5.038-11.27-9.909-16.924-14.489-3.053-2.474-6.018-1.083-8.456,1.363-2.941,2.949-5.58,6.22-8.69,8.966-1.165,1.029-3.287.975-4.972,1.414.4-1.724.29-3.873,1.3-5.094,3.178-3.844,6.7-7.414,10.232-10.949,4.028-4.033,8.439-4.662,13.017-1.129,6.307,4.867,12.192,10.282,18.4,15.586,2.346-1.245,3.111-2.7.561-4.717a4.776,4.776,0,0,1-1.4-1.407c-.845-1.714-1.55-3.5-2.31-5.255a38.174,38.174,0,0,1,5.559,1.819c1.294.638,2.285,1.89,3.522,2.964,3.88-1.8,4.869-3.864,3.06-8.223-1.473-3.549-1.164-7.928-1.15-11.936,0-.963,1.973-1.92,3.038-2.879.794,1.142,1.991,2.184,2.3,3.445.782,3.167,1.163,6.433,1.936,11.034l51.7-53.957H990.551c0,3.33.044,6.08-.009,8.828-.119,6.154.144,12.355-.553,18.445-.735,6.408-4.328,9.357-10.808,9.5a142.795,142.795,0,0,1-15.468-.686c-1.119-.1-2.125-1.487-3.184-2.281,1.05-.853,2.029-2.313,3.163-2.445,3.629-.425,7.318-.32,10.98-.488,9.145-.418,11.046-2.848,9.506-12.65-2.829-.235-5.776-.587-8.732-.7-3.829-.144-7.689.135-11.488-.246-1.491-.149-2.853-1.591-4.273-2.445,1.346-.879,2.65-2.43,4.047-2.519a116.288,116.288,0,0,1,15.979-.147c4.593.343,5.263-1.848,5.225-5.6-.037-3.6.13-6.54-5.055-6.223-5.973.365-11.995-.117-17.994-.081-2.711.016-4.672-.7-4.777-3.724-.118-3.389,2.032-4.037,4.929-4,7.3.1,14.593.031,22.342.031V518.7c-5.236,0-10.491.019-15.747-.011a15.951,15.951,0,0,1-4.958-.337c-1.291-.442-2.276-1.773-3.4-2.711,1.139-.733,2.243-2.025,3.424-2.1,4.985-.32,10.006-.1,14.988-.444,2.356-.162,6.111,1.708,6.1-3.369-.012-6.729-1.623-9.674-6.386-10.041-4.315-.333-8.686-.017-12.98-.474-1.8-.191-3.459-1.638-5.182-2.514,1.713-.86,3.392-2.368,5.145-2.459,5.144-.265,10.319-.009,15.479.124,4.675.12,7.729,2.706,8.289,7.15.767,6.08.855,12.251,1.106,18.388.142,3.461.026,6.932.026,10.683h95.145l.445-1.121-52.042-49.125-1.452.291c-.27,3.34-.4,6.7-.881,10.009-.187,1.271-1.2,2.42-1.832,3.625-1.108-.9-3.052-1.7-3.172-2.715-.414-3.522-1.439-7.795.053-10.54,2.8-5.15.981-7.588-3.847-10.266-2.666,2.792-5.358,5.882-8.345,8.655a41.934,41.934,0,0,1-7.849,6.043c-3.687,2.056-7.4,1.46-10.561-1.561-5.657-5.415-11.391-10.752-16.9-16.309-.875-.882-.761-2.746-1.105-4.155,1.574.124,3.675-.358,4.633.475,5.149,4.479,10.083,9.214,14.949,14.006,2.874,2.831,5.823,3.314,8.793.589,4.234-3.885,8.246-8.012,12.352-12.036l-1.042-.721-8.048,1.612,2.6-7.774a25.291,25.291,0,0,0-5.082.052c-6.031,1.231-11.849-1.14-14.566-6.169a12.58,12.58,0,0,1,2.473-15.122,12.393,12.393,0,0,1,14.351-2.157,12.962,12.962,0,0,1,7.263,13.1c-.162,1.727-.025,3.482-.025,5.2l7.245-1.949v7.6c5.218-4.1,10.222-8.308,12.306-14.732.5-1.548-1.27-4.4-2.751-5.917-4.183-4.287-8.871-8.08-13.093-12.332-.983-.99-.906-3.032-1.316-4.59,1.6.193,3.707-.2,4.733.675,5.575,4.752,11.041,9.658,16.235,14.822,4.093,4.07,4.035,8.7-.123,13.928-3.4,4.27-7.276,8.154-11.062,12.341,2.893,3.715,5.178,7.4,10.9,4.11,2.148-1.235,5.522-.749,8.246-.379,1.21.165,2.194,1.989,3.281,3.06-1.166.742-2.246,1.843-3.516,2.146-2.356.562-4.823.658-8.966,1.154l52.632,49.744c.183-2.622.363-4.041.369-5.462.074-18.173.06-36.346.23-54.518.036-3.822-.309-6.583-5.229-6.144-1,.089-2.142-1.466-3.218-2.264a19.986,19.986,0,0,1,3.38-2.309c.848-.366,2.12.2,2.926-.2.842-.421,1.868-1.508,1.863-2.3s-1.074-1.759-1.91-2.26c-.627-.376-1.758.125-2.429-.222a31.577,31.577,0,0,1-3.665-2.533c1.246-.822,2.449-2.252,3.746-2.343,3.08-.217,5.5-.408,3.763-4.612a31.892,31.892,0,0,1-5.4-.732c-.905-.272-1.541-1.44-2.3-2.2a12.617,12.617,0,0,1,2.316-2.194c.653-.371,1.78.08,2.419-.3a31.417,31.417,0,0,0,3.544-2.791c-1.294-.862-2.537-2.351-3.893-2.463-3.469-.286-6.988.1-10.487.1a71.055,71.055,0,0,1-7.485-.318c-9.338-.988-11.841-3.811-11.776-13.078.031-4.5-.084-9.013.2-13.5.075-1.175,1.4-2.271,2.148-3.4.882,1.152,2.414,2.243,2.53,3.467.44,4.639.483,9.32.555,13.987.059,3.81,2.119,6.3,5.619,6.482,7.263.377,14.558.114,22.945.114,0-7.851-.1-15.466.095-23.073a5.9,5.9,0,0,1,2.114-3.982c.7-.544,2.873-.184,3.6.549a6.253,6.253,0,0,1,1.333,3.978c.14,6.166.238,12.343.014,18.5-.122,3.359,1.145,4.381,4.337,4.254,5.157-.2,10.348.185,15.486-.2,6.668-.5,7.936-2.147,8.039-8.839a114.118,114.118,0,0,1,.323-11.487c.163-1.382,1.822-2.588,2.8-3.874.831,1.249,2.312,2.465,2.378,3.753a138.5,138.5,0,0,1,.019,15.491c-.418,6.88-3.865,10.236-10.788,10.577-6.153.3-12.326.24-18.491.244-2.195,0-4.442.163-3.763,3,.256,1.069,2.384,1.726,3.7,2.5,1.522.891,3.092,1.7,4.641,2.547-1.46.834-2.916,1.674-4.38,2.5-1.367.77-2.742,1.525-4.113,2.286,1.447.85,2.915,1.669,4.337,2.561,1.377.863,2.708,1.8,4.06,2.7-1.352.681-2.73,1.315-4.047,2.058-1.48.835-2.9,1.768-4.353,2.658,1.363.777,2.721,1.562,4.091,2.327,1.463.818,2.937,1.615,4.407,2.422-1.429.818-2.779,2.076-4.306,2.352-2.266.411-4.17.361-4.163,3.572.04,20.173-.064,40.346-.087,60.52A10.813,10.813,0,0,0,1100.212,524.517ZM996.056,445.168c-.886,7.689,3.147,11.338,9.952,9.479Zm5.463-5.688,10.185,9.2C1012.02,442.331,1009.31,439.674,1001.519,439.48Z" stroke="#933" stroke-width="3"/>
      <path id="Tracé_79" data-name="Tracé 79" d="M1019.286,379.307c-8.591-1.51-16.143-2.7-23.611-4.3-1.114-.238-2.655-2.4-2.59-3.6.42-7.791,1.229-15.562,1.974-24.066l27.151,4.6C1021.234,361.083,1020.29,369.916,1019.286,379.307Zm-21.47-8.509c5.352.995,10.035,2.07,14.78,2.589,1.046.114,2.645-1.542,3.366-2.754.61-1.025.256-2.6.434-3.91,1.49-10.976,1.5-10.975-9.578-13.008-6.979-1.281-7.071-1.294-8.026,5.492C998.288,362.8,998.169,366.437,997.816,370.8Z" stroke="#933" stroke-width="3"/>
      <path id="Tracé_80" data-name="Tracé 80" d="M996.056,445.168l9.952,9.479C999.2,456.506,995.17,452.857,996.056,445.168Z" stroke="#933" stroke-width="3"/>
      <path id="Tracé_81" data-name="Tracé 81" d="M1001.519,439.48c7.791.194,10.5,2.851,10.185,9.2Z" stroke="#933" stroke-width="3"/>
      <path id="Tracé_82" data-name="Tracé 82" d="M997.816,370.8c.353-4.361.472-8,.976-11.591.955-6.786,1.047-6.773,8.026-5.492,11.076,2.033,11.068,2.032,9.578,13.008-.178,1.315.176,2.885-.434,3.91-.721,1.212-2.32,2.868-3.366,2.754C1007.851,372.868,1003.168,371.793,997.816,370.8Z" stroke="#933" stroke-width="3"/>
    </g>
  </g>
</svg>
