<svg id="rouge" xmlns="http://www.w3.org/2000/svg" width="204" height="288" viewBox="0 0 204 288">
  <g id="Rectangle_10" data-name="Rectangle 10" fill="#fff" stroke="#707070" stroke-width="2">
    <rect width="204" height="288" rx="8" stroke="none"/>
    <rect x="1" y="1" width="202" height="286" rx="7" fill="none"/>
  </g>
  <g id="Groupe_12" data-name="Groupe 12" transform="translate(16.251 53.298)">
    <g id="Groupe_9" data-name="Groupe 9">
      <g id="Groupe_6" data-name="Groupe 6">
        <g id="Ellipse_6" data-name="Ellipse 6" transform="translate(3.448)" fill="#c20016" stroke="#faecec" stroke-width="1">
          <ellipse cx="84.197" cy="85" rx="84.197" ry="85" stroke="none"/>
          <ellipse cx="84.197" cy="85" rx="83.697" ry="84.5" fill="none"/>
        </g>
        <g id="Tracé_90" data-name="Tracé 90" transform="translate(58.428 1.258) rotate(30)" fill="#c20016" opacity="0.948">
          <path d="M 100.0297317504883 115.3523712158203 L 34.65907287597656 115.0829544067383 L 1.73073422908783 58.14787292480469 L 34.18093109130859 1.503588914871216 L 99.55158996582031 1.772985696792603 L 132.4799194335938 58.70806884765625 L 100.0297317504883 115.3523712158203 Z" stroke="none"/>
          <path d="M 35.04827117919922 3.007171630859375 L 3.46148681640625 58.14429092407227 L 35.52639770507812 113.5865097045898 L 99.16239929199219 113.8487548828125 L 130.7491607666016 58.71163177490234 L 98.68422698974609 3.269416809082031 L 35.04827117919922 3.007171630859375 M 33.31360626220703 -7.62939453125e-06 L 100.4188995361328 0.2765274047851562 L 134.2106475830078 58.70450973510742 L 100.8970642089844 116.8559341430664 L 33.79172515869141 116.5793914794922 L 0 58.15140914916992 L 33.31360626220703 -7.62939453125e-06 Z" stroke="none" fill="#faecec"/>
        </g>
      </g>
    </g>
  </g>
  <g id="Groupe_38" data-name="Groupe 38" transform="translate(91.815 112.533)">
    <g id="Union_1" data-name="Union 1" fill="none" stroke-linejoin="round">
      <path d="M17.946,38.885,0,52.345ZM0,0V0ZM17.946,38.885,32.9,46.362ZM34.4,8.974,19.442,17.946ZM0,0,19.442,17.946Z" stroke="none"/>
      <path d="M 1.397705062800014e-07 52.3446159362793 L 17.94622039794922 38.88460540771484 L 1.397705062800014e-07 52.3446159362793 M 1.397705062800014e-07 52.3446159362793 L 1.397705062800014e-07 6.060790838091634e-06 L 1.397705062800014e-07 52.3446159362793 M 32.90163040161133 46.36163711547852 L 17.94622039794922 38.88460540771484 L 32.90163040161133 46.36163711547852 M 19.44162940979004 17.94622611999512 L 1.397705062800014e-07 6.060790838091634e-06 L 19.44162940979004 17.94622611999512 M 19.44162940979004 17.94622611999512 L 34.39838027954102 8.973786354064941 L 19.44162940979004 17.94622611999512 M 0.001539553864859045 54.3447380065918 C -0.03464298322796822 54.3447380065918 -0.07076913863420486 54.34375762939453 -0.1068567410111427 54.3418083190918 C -0.3843471705913544 54.32719421386719 -0.6468485593795776 54.25603866577148 -0.8830412030220032 54.13961791992188 C -1.128397107124329 54.01918411254883 -1.352191805839539 53.84664535522461 -1.536853551864624 53.62456893920898 C -1.692378759384155 53.43803787231445 -1.814554333686829 53.22279739379883 -1.894295573234558 52.9879035949707 C -1.96767783164978 52.77193832397461 -2.002446174621582 52.54742050170898 -1.99999988079071 52.32420349121094 L -1.99999988079071 0.004505041055381298 C -2.000086784362793 -0.03111357055604458 -1.999231696128845 -0.06675556302070618 -1.997425436973572 -0.1023511588573456 C -1.986185073852539 -0.3254077136516571 -1.938406825065613 -0.5387815237045288 -1.859945058822632 -0.7367017269134521 C -1.786972403526306 -0.9210434556007385 -1.685327291488647 -1.097107887268066 -1.55483603477478 -1.258067846298218 C -1.554678440093994 -1.258262157440186 -1.554535746574402 -1.258438110351562 -1.554378151893616 -1.25863242149353 C -1.55408501625061 -1.258993744850159 -1.553784251213074 -1.259364724159241 -1.5534907579422 -1.25972592830658 C -1.51813006401062 -1.303280591964722 -1.481019496917725 -1.345267772674561 -1.442181944847107 -1.385677695274353 C -1.25649094581604 -1.579097867012024 -1.04084038734436 -1.727208018302917 -0.8092319369316101 -1.829514861106873 C -0.5680238604545593 -1.936358451843262 -0.3016989231109619 -1.996913313865662 -0.02160646393895149 -1.999879002571106 C -0.02154398150742054 -1.999879717826843 -0.02150195091962814 -1.999880075454712 -0.02143947035074234 -1.99988067150116 C -0.02069971151649952 -1.99988842010498 -0.02003211341798306 -1.999895691871643 -0.01929216273128986 -1.999902606010437 C -0.0126689663156867 -1.99996817111969 -0.006127362139523029 -2.000000476837158 0.0004965850966982543 -2.000000476837158 C 0.03461616113781929 -2.000000476837158 0.06881570070981979 -1.999128460884094 0.1029123142361641 -1.997391939163208 C 0.3236213326454163 -1.986204147338867 0.5349819660186768 -1.939203500747681 0.7311269044876099 -1.862141966819763 C 0.9183031916618347 -1.788712024688721 1.096907019615173 -1.685835838317871 1.260063409805298 -1.553216099739075 C 1.295018315315247 -1.524826526641846 1.328972220420837 -1.495294690132141 1.361914992332458 -1.464650988578796 L 19.69740676879883 15.46051216125488 L 33.3695182800293 7.258716106414795 C 33.69159698486328 7.065505981445312 34.0463752746582 6.973482608795166 34.39648056030273 6.973482608795166 C 35.07601547241211 6.973482608795166 35.73844146728516 7.319799423217773 36.11344909667969 7.944926261901855 C 36.68167114257812 8.892135620117188 36.37443923950195 10.12063598632812 35.42723846435547 10.68885612487793 L 20.50826644897461 19.63863563537598 C 20.37945938110352 19.71993637084961 20.24320220947266 19.78518867492676 20.10236930847168 19.83434104919434 C 19.88719177246094 19.90990447998047 19.66442680358887 19.94652938842773 19.44352912902832 19.94652938842773 C 19.37289237976074 19.94652938842773 19.30243492126465 19.94278144836426 19.23246765136719 19.93537712097168 C 18.95109367370605 19.9060230255127 18.6744499206543 19.81707382202148 18.42256927490234 19.6676082611084 C 18.28964042663574 19.58908081054688 18.16497611999512 19.49460411071777 18.05160331726074 19.38493347167969 L 2.000000238418579 4.567986488342285 L 2.000000238418579 48.34455108642578 L 16.71232604980469 37.31002426147461 C 16.78734970092773 37.25131607055664 16.86635589599609 37.19820404052734 16.94830894470215 37.15111923217773 C 17.20513343811035 37.00285339355469 17.48477363586426 36.91754150390625 17.76682472229004 36.89239120483398 C 17.82680320739746 36.88693237304688 17.88723945617676 36.8841667175293 17.94777488708496 36.8841667175293 C 18.16763496398926 36.8841667175293 18.38989067077637 36.92054748535156 18.60580825805664 36.99626541137695 C 18.69966506958008 37.02894973754883 18.79143524169922 37.06875991821289 18.88008499145508 37.1154670715332 L 33.79598999023438 44.57274627685547 C 34.78396987915039 45.06669616699219 35.1844596862793 46.26802444458008 34.69052124023438 47.25599670410156 C 34.34013748168945 47.95682144165039 33.63369369506836 48.36207580566406 32.90007400512695 48.36207580566406 C 32.59947967529297 48.36207580566406 32.2944221496582 48.29409027099609 32.00727081298828 48.15052795410156 L 18.15742301940918 41.22622680664062 L 1.215897560119629 53.93269729614258 C 1.033540844917297 54.07253646850586 0.8263876438140869 54.18165588378906 0.6021948456764221 54.25236511230469 C 0.4060534536838531 54.31429290771484 0.2033604979515076 54.3447380065918 0.001539553864859045 54.3447380065918 Z" stroke="none" fill="#f8eceb"/>
    </g>
  </g>
</svg>
